{"title":"The Town [2010] ALTERNATE CUT BRRip XviD - CODY","uid":7199457,"size":1186370536,"categoryP":"video","categoryS":"movies","magnet":"?xt=urn:btih:54ec3771f1a0398a232753382310e8724fa2c201&amp;dn=The+Town+%5B2010%5D+ALTERNATE+CUT+BRRip+XviD+-+CODY&amp;tr=udp%3A%2F%2Ftracker.openbittorrent.com%3A80&amp;tr=udp%3A%2F%2Fopen.demonii.com%3A1337&amp;tr=udp%3A%2F%2Ftracker.coppersurfer.tk%3A6969&amp;tr=udp%3A%2F%2Fexodus.desync.com%3A6969","seeders":0,"leechers":1,"uploader":"CODYBOSS1969","files":6,"time":1334884844,"description":"General\nComplete name                            : The Town [2010] ALTERNATE CUT BRRip XviD - CODY.avi\nFormat                                   : AVI\nFormat/Info                              : Audio Video Interleave\nFile size                                : 1.10 GiB\nDuration                                 : 2h 33mn\nOverall bit rate                         : 1 030 Kbps\nWriting application                      : VirtualDubMod 1.5.10.3 | www.virtualdub-fr.org || (build 2550/release)\nWriting library                          : VirtualDubMod build 2550/release\n\nVideo\nID                                       : 0\nFormat                                   : MPEG-4 Visual\nFormat profile                           : Advanced Simple@L5\nFormat settings, BVOP                    : 4\nFormat settings, QPel                    : No\nFormat settings, GMC                     : No warppoints\nFormat settings, Matrix                  : Default (H.263)\nCodec ID                                 : XVID\nCodec ID/Hint                            : XviD\nDuration                                 : 2h 33mn\nBit rate                                 : 893 Kbps\nWidth                                    : 720 pixels\nHeight                                   : 296 pixels\nDisplay aspect ratio                     : 2.40:1\nFrame rate                               : 23.976 fps\nColor space                              : YUV\nChroma subsampling                       : 4:2:0\nBit depth                                : 8 bits\nScan type                                : Progressive\nCompression mode                         : Lossy\nBits/(Pixel*Frame)                       : 0.175\nStream size                              : 980 MiB (87%)\nWriting library                          : XviD 1.2.1 (UTC 2008-12-04)\n\nAudio\nID                                       : 1\nFormat                                   : MPEG Audio\nFormat version                           : Version 1\nFormat profile                           : Layer 3\nCodec ID                                 : 55\nCodec ID/Hint                            : MP3\nDuration                                 : 2h 33mn\nBit rate mode                            : Constant\nBit rate                                 : 128 Kbps\nChannel(s)                               : 2 channels\nSampling rate                            : 48.0 KHz\nCompression mode                         : Lossy\nStream size                              : 140 MiB (12%)\nAlignment                                : Aligned on interleaves\nInterleave, duration                     : 42 ms (1.00 video frame)\nInterleave, preload duration             : 504 ms\nWriting library                          : L3.99r\nEncoding settings                        : -m s -V 4 -q 2 -lowpass 17 -b 128\n\n\n\n\nIMDB link:                                &lt;a href=&quot; http://www.imdb.com/title/tt0840361/&quot; rel=&quot;nofollow&quot; target=&quot;_NEW&quot;&gt; http://www.imdb.com/title/tt0840361/&lt;/a&gt;\n\n\n\n\nSubtitles included                       : English [for hearing impaired], Romanian\n\n\n\n\nPlease seed at least 1,5:1 . This way this torrent has a chance to survive !\n\n\n\n\nThanks . Enjoy !!","torrent":{"xt":"urn:btih:54ec3771f1a0398a232753382310e8724fa2c201","amp;dn":"The+Town+%5B2010%5D+ALTERNATE+CUT+BRRip+XviD+-+CODY","amp;tr":["udp%3A%2F%2Ftracker.openbittorrent.com%3A80","udp%3A%2F%2Fopen.demonii.com%3A1337","udp%3A%2F%2Ftracker.coppersurfer.tk%3A6969","udp%3A%2F%2Fexodus.desync.com%3A6969"],"infoHash":"54ec3771f1a0398a232753382310e8724fa2c201","infoHashBuffer":{"type":"Buffer","data":[84,236,55,113,241,160,57,138,35,39,83,56,35,16,232,114,79,162,194,1]},"announce":[],"urlList":[]}}